<?xml version="1.0" encoding="UTF-8"?>
<!DOCTYPE svg PUBLIC "-//W3C//DTD SVG 1.1//EN" "http://www.w3.org/Graphics/SVG/1.1/DTD/svg11.dtd">
<!-- Creator: CorelDRAW 2017 -->
<svg xmlns="http://www.w3.org/2000/svg" xml:space="preserve" width="559px" height="494px" version="1.1" style="shape-rendering:geometricPrecision; text-rendering:geometricPrecision; image-rendering:optimizeQuality; fill-rule:evenodd; clip-rule:evenodd"
viewBox="0 0 117 104"
 xmlns:xlink="http://www.w3.org/1999/xlink">
 <defs>
  <style type="text/css">
   <![CDATA[
    .str1 {stroke:#FF9800;stroke-width:5}
    .str0 {stroke:#FF9800;stroke-width:6}
    .fil0 {fill:none}
    .fil1 {fill:white}
    .fil2 {fill:#FF9800;fill-rule:nonzero}
   ]]>
  </style>
 </defs>
 <g id="Layer_x0020_1">
  <metadata id="CorelCorpID_0Corel-Layer"/>
  <circle class="fil0 str0" cx="76" cy="40" r="25"/>
  <line class="fil0 str1" x1="41" y1="16" x2="49" y2= "22" />
  <line class="fil0 str1" x1="107" y1="66" x2="101" y2= "60" />
  <line class="fil0 str1" x1="107" y1="16" x2="100" y2= "22" />
  <line class="fil0 str1" x1="41" y1="66" x2="47" y2= "60" />
  <line class="fil0 str1" x1="76" y1="0" x2="76" y2= "10" />
  <line class="fil0 str1" x1="76" y1="83" x2="76" y2= "74" />
  <line class="fil0 str1" x1="117" y1="42" x2="107" y2= "42" />
  <line class="fil0 str1" x1="35" y1="41" x2="44" y2= "41" />
  <path class="fil1" d="M98 78c6,0 11,5 11,11 0,4 -2,7 -5,9l-3 2c-7,2 -70,0 -83,0 -7,0 -14,-7 -14,-14 0,-5 5,-13 12,-14 -1,-3 -2,-5 -2,-8 0,-12 10,-21 21,-21 9,0 17,6 20,14 3,-3 7,-5 11,-5 8,0 15,7 15,15 0,0 0,1 0,1 1,-1 3,-1 5,-1 6,0 11,5 11,11 0,0 0,1 0,1z"/>
  <path class="fil2" d="M101 74c3,1 5,2 6,4 3,3 4,6 4,10 0,2 -1,5 -2,7 -1,2 -3,4 -5,5l0 0 -4 2 0 0c-6,2 -43,1 -67,1 -7,0 -13,0 -17,0 -4,0 -9,-2 -12,-5 -3,-3 -5,-8 -5,-12 0,-4 2,-8 5,-12 2,-2 4,-4 6,-5 0,0 0,0 0,-1 0,-2 0,-3 0,-5 0,-7 3,-13 7,-18 5,-5 11,-7 18,-7 5,0 10,2 14,5 3,2 5,4 7,7 1,-1 2,-1 2,-1l0 0c2,-1 5,-2 8,-2 5,0 10,2 13,5 2,2 4,6 5,9 0,0 1,0 1,0 4,0 8,2 10,4 2,2 4,5 4,9zm1 9c-1,-1 -3,-2 -5,-2l-4 0 0 -4c0,0 0,0 0,0 0,0 0,0 0,0 0,-2 -1,-4 -2,-5 -1,-1 -3,-2 -5,-2 -1,0 -1,0 -2,0 -1,0 -1,0 -2,1l-6 3 1 -7c0,0 0,0 0,0 0,-3 -1,-6 -3,-8 -2,-2 -5,-3 -8,-3 -2,0 -3,0 -5,1l0 0c-1,1 -3,2 -4,3l-4 5 -2 -6c-1,-3 -4,-6 -7,-8 -3,-2 -6,-3 -10,-3 -5,0 -9,2 -13,5 -3,3 -5,8 -5,13 0,1 0,2 0,3 0,1 1,2 1,3l2 5 -5 0c-2,0 -4,2 -6,3 -2,2 -3,5 -3,7 0,2 1,5 3,7 2,2 4,3 7,3 2,0 9,0 17,0 23,0 59,1 64,0l3 -1c1,-1 2,-1 2,-2 1,-1 1,-2 1,-3 0,-2 -1,-4 -2,-5z"/>
 </g>
</svg>
