<?xml version="1.0" encoding="UTF-8"?>
<!DOCTYPE svg PUBLIC "-//W3C//DTD SVG 1.1//EN" "http://www.w3.org/Graphics/SVG/1.1/DTD/svg11.dtd">
<!-- Creator: CorelDRAW 2017 -->
<svg xmlns="http://www.w3.org/2000/svg" xml:space="preserve" width="862px" height="862px" version="1.1" style="shape-rendering:geometricPrecision; text-rendering:geometricPrecision; image-rendering:optimizeQuality; fill-rule:evenodd; clip-rule:evenodd"
viewBox="0 0 278 278"
 xmlns:xlink="http://www.w3.org/1999/xlink">
 <defs>
  <style type="text/css">
   <![CDATA[
    .fil1 {fill:#141F3D}
    .fil0 {fill:#8E99AB}
   ]]>
  </style>
 </defs>
 <g id="Layer_x0020_1">
  <metadata id="CorelCorpID_0Corel-Layer"/>
  <circle class="fil0" cx="139" cy="139" r="139"/>
  <path class="fil1" d="M210 154c-41,54 -120,18 -113,-41 2,-17 9,-29 21,-39 2,-2 3,-2 5,-4 -11,1 -24,10 -32,17 -4,3 -8,9 -11,13 -11,17 -15,39 -9,59 13,44 67,66 109,39 3,-2 5,-3 7,-5 9,-8 21,-24 23,-38z"/>
 </g>
</svg>
