<?xml version="1.0" encoding="UTF-8"?>
<!DOCTYPE svg PUBLIC "-//W3C//DTD SVG 1.1//EN" "http://www.w3.org/Graphics/SVG/1.1/DTD/svg11.dtd">
<!-- Creator: CorelDRAW 2017 -->
<svg xmlns="http://www.w3.org/2000/svg" xml:space="preserve" width="862px" height="862px" version="1.1" style="shape-rendering:geometricPrecision; text-rendering:geometricPrecision; image-rendering:optimizeQuality; fill-rule:evenodd; clip-rule:evenodd"
viewBox="0 0 2095 2095"
 xmlns:xlink="http://www.w3.org/1999/xlink">
 <defs>
  <style type="text/css">
   <![CDATA[
    .fil1 {fill:#141F3D}
    .fil0 {fill:#8E99AB}
   ]]>
  </style>
 </defs>
 <g id="Layer_x0020_1">
  <metadata id="CorelCorpID_0Corel-Layer"/>
  <circle class="fil0" cx="1048" cy="1048" r="1048"/>
  <path class="fil1" d="M1337 1022c-15,95 -72,146 -109,210 -42,73 -36,160 -71,166 -15,3 -60,1 -79,1 -197,0 -135,27 -190,-126 -7,-20 -17,-38 -26,-53 -26,-43 -60,-69 -90,-152 -55,-152 65,-340 247,-358 101,-10 187,35 234,82 42,42 100,137 85,231zm-150 508l1 -34c-22,-4 -264,-5 -281,0l0 36 280 -2zm280 -997c-9,5 -112,105 -115,120 -4,22 18,41 41,30 9,-4 67,-65 79,-76 9,-9 34,-31 37,-43 5,-25 -20,-44 -42,-30zm-718 803c9,-22 -11,-46 -37,-37 -11,4 -119,114 -122,122 -9,26 14,46 37,37 8,-4 116,-110 121,-121zm595 -8c1,17 115,126 120,128 22,13 47,-1 45,-26 -2,-19 -119,-129 -121,-130 -24,-14 -46,4 -44,27zm-306 -978c-31,11 -19,82 -19,116 0,33 -11,115 41,93 25,-11 16,-85 16,-115 0,-26 12,-111 -38,-93zm-435 182c-45,22 18,71 44,97 31,31 66,79 95,65 45,-22 -22,-75 -42,-95 -34,-34 -67,-81 -96,-67zm301 1133l283 -1 0 -42 -284 1 1 42zm1 -66l282 0 -1 -42 -282 0 2 42zm-493 -612c-17,10 -22,32 -7,46 16,15 187,7 193,5 15,-6 24,-31 8,-46 -16,-16 -182,-11 -194,-4zm1112 53c39,0 156,8 170,-11 8,-12 6,-31 -5,-39 -12,-9 -189,-13 -204,1 -5,4 -32,50 39,50zm-615 645c-1,47 90,63 135,63 42,0 139,-15 135,-63l-270 0zm102 -948c-112,19 -193,109 -208,213 -12,87 47,73 54,43 8,-33 -2,-57 30,-110 63,-103 166,-89 182,-98 15,-8 18,-36 3,-47 -15,-12 -43,-5 -62,-2zm-2 -96c-224,26 -366,248 -306,437 15,47 41,93 65,128 34,50 45,55 66,127 17,57 20,101 68,124 35,17 140,9 187,9 75,0 116,4 145,-47 39,-70 2,-86 86,-201 14,-19 24,-35 38,-60 21,-36 45,-94 49,-144 14,-216 -179,-398 -397,-373z"/>
 </g>
</svg>
