<?xml version="1.0" encoding="UTF-8"?>
<!DOCTYPE svg PUBLIC "-//W3C//DTD SVG 1.1//EN" "http://www.w3.org/Graphics/SVG/1.1/DTD/svg11.dtd">
<!-- Creator: CorelDRAW 2017 -->
<svg xmlns="http://www.w3.org/2000/svg" xml:space="preserve" width="718px" height="535px" version="1.1" style="shape-rendering:geometricPrecision; text-rendering:geometricPrecision; image-rendering:optimizeQuality; fill-rule:evenodd; clip-rule:evenodd"
viewBox="0 0 178 133"
 xmlns:xlink="http://www.w3.org/1999/xlink">
 <defs>
  <style type="text/css">
   <![CDATA[
    .fil3 {fill:#6699FF}
    .fil0 {fill:white}
    .fil2 {fill:white}
    .fil1 {fill:#FF9800;fill-rule:nonzero}
   ]]>
  </style>
 </defs>
 <g id="Layer_x0020_1">
  <metadata id="CorelCorpID_0Corel-Layer"/>
  <path class="fil0" d="M115 58c7,0 13,6 13,13 0,4 -2,8 -5,11l-4 2c-8,2 -83,0 -98,0 -8,0 -16,-9 -16,-16 0,-6 6,-15 15,-16 -1,-3 -2,-6 -2,-10 0,-14 11,-25 25,-25 11,0 20,7 24,17 3,-4 8,-6 13,-6 10,0 17,8 17,17 0,0 0,1 0,1 2,-1 4,-1 6,-1 7,0 13,6 13,13 0,1 0,1 0,2z"/>
  <path class="fil1" d="M120 54c3,1 6,2 8,5 3,3 5,7 5,12 0,3 -1,6 -2,8 -1,2 -3,5 -5,6l0 0 -4 2 0 0c-7,2 -51,1 -79,1 -9,0 -16,0 -20,0 -5,0 -10,-3 -14,-6 -4,-4 -7,-9 -7,-14 0,-4 2,-10 6,-14 2,-2 5,-4 8,-5 0,0 0,-1 0,-1 0,-2 -1,-4 -1,-6 0,-8 3,-16 9,-21 5,-5 13,-9 21,-9 6,0 12,2 17,5 3,2 6,5 8,9 1,-1 2,-1 3,-2l0 0c3,-1 6,-2 9,-2 6,0 11,2 15,6 3,3 5,7 6,11 1,0 1,0 2,0 5,0 9,2 12,5 3,3 4,6 5,10zm1 11c-2,-2 -4,-3 -6,-3l-5 0 1 -5c0,0 0,0 0,-1 0,0 0,0 0,-1 0,-2 -1,-4 -3,-6 -2,-2 -4,-2 -6,-2 -1,0 -1,0 -2,0 -1,0 -1,0 -2,1l-7 3 1 -8c0,0 0,0 0,0 0,-4 -1,-7 -4,-9 -2,-2 -6,-4 -9,-4 -2,0 -4,0 -6,1l0 0c-2,1 -3,2 -4,4l-5 6 -3 -7c-1,-4 -4,-8 -8,-10 -3,-2 -8,-4 -12,-4 -6,0 -11,2 -15,6 -4,4 -6,9 -6,15 0,1 0,3 0,4 0,1 1,3 1,4l2 6 -6 1c-3,0 -5,2 -7,4 -2,2 -4,5 -4,8 0,3 2,6 4,8 2,2 5,4 8,4 3,0 11,0 20,0 27,1 69,1 76,0l3 -2c1,-1 2,-2 2,-3 1,-1 1,-2 1,-4 0,-2 -1,-4 -2,-6z"/>
  <path class="fil2" d="M161 46c7,0 13,6 13,13 0,4 -2,8 -5,11l-4 2c-8,2 -83,0 -98,0 -8,0 -16,-9 -16,-16 0,-6 6,-15 15,-16 -1,-3 -2,-6 -2,-10 0,-14 11,-25 25,-25 11,0 20,7 24,17 3,-4 8,-6 13,-6 9,0 17,8 17,17 0,0 0,1 0,1 2,-1 4,-1 6,-1 7,0 13,6 13,13 0,1 0,1 0,2z"/>
  <path class="fil1" d="M166 43c3,1 6,2 8,5 3,3 5,7 5,12 0,3 -1,6 -2,8 -1,2 -3,5 -5,6l0 0 -4 2 0 0c-7,2 -51,1 -79,1 -9,0 -16,0 -20,0 -5,0 -10,-3 -14,-6 -4,-4 -6,-9 -6,-14 0,-4 2,-10 6,-14 2,-2 5,-4 8,-5 0,0 0,-1 0,-1 0,-2 -1,-4 -1,-6 0,-8 3,-16 9,-21 5,-5 13,-9 21,-9 6,0 12,2 17,5 3,2 6,5 8,9 1,-1 2,-1 3,-2l0 0c3,-1 6,-2 9,-2 6,0 11,2 15,6 3,3 5,7 6,11 1,0 1,0 2,0 5,0 9,2 12,5 3,3 4,6 5,10zm1 11c-2,-2 -4,-3 -6,-3l-5 0 1 -5c0,0 0,0 0,-1 0,0 0,0 0,-1 0,-2 -1,-4 -3,-6 -2,-2 -4,-3 -6,-3 -1,0 -1,0 -2,0 -1,0 -1,0 -2,1l-7 3 1 -8c0,0 0,0 0,0 0,-4 -1,-7 -4,-9 -2,-2 -6,-4 -9,-4 -2,0 -4,0 -6,1l0 0c-2,1 -3,2 -4,4l-5 6 -3 -7c-1,-4 -4,-8 -8,-10 -3,-2 -8,-4 -12,-4 -6,0 -11,2 -15,6 -4,4 -6,9 -6,15 0,1 0,3 0,4 0,1 1,3 1,4l2 6 -6 1c-3,0 -5,2 -7,4 -2,2 -4,5 -4,8 0,3 2,6 4,8 2,2 5,4 8,4 3,0 11,0 20,0 27,1 69,1 76,0l3 -2c1,-1 2,-2 2,-3 1,-1 1,-2 1,-4 0,-2 -1,-4 -2,-6z"/>
  <g id="_2263869393792">
   <path class="fil3" d="M59 123c0,5 -4,9 -9,9 -20,0 -3,-17 0,-19l9 -11c-1,10 0,14 0,21z"/>
   <path class="fil3" d="M89 123c0,5 -4,9 -9,9 -20,0 -3,-17 0,-19l9 -11c-1,10 0,14 0,21z"/>
   <path class="fil3" d="M120 124c0,5 -4,9 -9,9 -20,0 -3,-17 0,-19l9 -11c-1,10 0,14 0,21z"/>
  </g>
 </g>
</svg>
