<?xml version="1.0" encoding="UTF-8"?>
<!DOCTYPE svg PUBLIC "-//W3C//DTD SVG 1.1//EN" "http://www.w3.org/Graphics/SVG/1.1/DTD/svg11.dtd">
<!-- Creator: CorelDRAW 2017 -->
<svg xmlns="http://www.w3.org/2000/svg" xml:space="preserve" width="610px" height="464px" version="1.1" style="shape-rendering:geometricPrecision; text-rendering:geometricPrecision; image-rendering:optimizeQuality; fill-rule:evenodd; clip-rule:evenodd"
viewBox="0 0 177 135"
 xmlns:xlink="http://www.w3.org/1999/xlink">
 <defs>
  <style type="text/css">
   <![CDATA[
    .fil2 {fill:#6699FF}
    .fil0 {fill:white}
    .fil1 {fill:#FF9800;fill-rule:nonzero}
   ]]>
  </style>
 </defs>
 <g id="Layer_x0020_1">
  <metadata id="CorelCorpID_0Corel-Layer"/>
  <path class="fil0" d="M135 54c8,0 15,7 15,15 0,5 -3,10 -6,12l-5 2c-10,3 -97,0 -114,0 -9,0 -19,-10 -19,-19 0,-7 8,-18 17,-19 -1,-4 -2,-7 -2,-11 0,-16 13,-30 30,-30 13,0 24,8 28,19 4,-5 9,-7 16,-7 11,0 20,9 20,20 0,1 0,1 0,2 2,-1 4,-2 7,-2 8,0 15,7 15,15 0,1 0,1 0,2z"/>
  <path class="fil1" d="M140 50c3,1 7,3 9,5 4,4 6,9 6,14 0,3 -1,6 -2,9 -1,3 -4,5 -6,7l0 0 -5 3 0 0c-8,2 -60,1 -92,1 -10,0 -18,0 -24,0 -6,0 -12,-3 -16,-8 -5,-5 -8,-11 -8,-16 0,-5 3,-11 7,-16 2,-3 5,-5 9,-6 0,0 0,-1 0,-1 0,-2 -1,-4 -1,-7 0,-10 4,-18 10,-25 6,-6 15,-10 25,-10 7,0 14,2 20,6 4,3 7,6 10,10 1,-1 2,-1 3,-2l0 0c3,-2 7,-2 11,-2 7,0 13,3 18,7 3,3 6,8 7,13 1,0 1,0 2,0 6,0 11,2 14,6 3,3 5,7 6,12zm2 13c-2,-2 -4,-3 -7,-3l-6 0 1 -6c0,0 0,0 0,-1 0,0 0,0 0,-1 0,-3 -1,-5 -3,-7 -2,-2 -4,-3 -7,-3 -1,0 -2,0 -2,0 -1,0 -1,0 -2,1l-8 4 1 -9c0,0 0,0 0,-1 0,-4 -2,-8 -4,-11 -3,-3 -6,-4 -11,-4 -2,0 -5,1 -6,1l0 0c-2,1 -4,2 -5,4l-6 7 -3 -9c-2,-5 -5,-9 -9,-12 -4,-3 -9,-4 -14,-4 -7,0 -13,3 -17,7 -4,4 -7,11 -7,17 0,2 0,3 0,5 0,2 1,3 1,5l3 6 -7 1c-3,0 -6,2 -8,5 -3,3 -4,6 -4,9 0,3 2,6 5,9 3,3 6,5 9,5 3,0 12,0 24,0 32,1 81,2 89,0l4 -2c1,-1 2,-2 3,-3 1,-1 1,-3 1,-5 0,-3 -1,-5 -3,-7z"/>
  <path class="fil2" d="M140 63l0 10c-1,-1 -12,-14 -12,-8 0,2 8,8 9,10 5,5 3,4 3,18 -3,-1 -8,-4 -11,-6 -4,-2 -3,-3 -5,-12 -1,-2 -1,-9 -4,-6 0,0 -1,0 -1,3l3 11c-3,-1 -11,-7 -13,-6 -3,3 9,7 11,9 -3,1 -14,2 -13,6 0,0 0,2 4,1 1,0 3,-1 4,-1 3,-1 7,-2 9,-2 3,0 5,2 7,3 2,1 6,3 7,4 -2,1 -5,3 -7,4 -8,4 -4,4 -16,1 -5,-1 -7,-2 -8,-1 1,4 8,3 14,6 -3,3 -14,6 -11,9 3,1 10,-5 13,-6 -1,3 -1,5 -2,7l-1 5c0,3 0,1 1,2 3,2 4,-10 6,-15 1,-2 0,-2 2,-3l11 -6 0 14c0,2 -2,3 -3,4l-7 7c0,0 -2,2 -2,2 -1,3 0,3 0,3 2,1 4,-2 6,-4 2,-2 4,-4 6,-6 0,4 -1,11 0,15l2 0c1,-3 0,-11 0,-15 4,3 9,11 11,9 1,-1 2,-1 -1,-4l-10 -10 0 -15c3,1 8,4 11,6 4,2 3,4 5,12 1,2 1,9 4,6 2,-1 1,-1 0,-7 -1,-3 -1,-5 -2,-7 3,1 11,7 13,6 3,-3 -9,-7 -11,-9 3,-2 15,-3 13,-6 0,0 0,-2 -4,-1l-13 4c-3,0 -13,-6 -14,-7 1,-1 11,-8 14,-7l13 3c4,1 4,1 4,-1 1,-3 -11,-4 -13,-6 3,-2 14,-6 11,-9 -2,-2 -9,4 -13,6 1,-3 1,-5 2,-7 0,-1 1,-2 1,-3 1,-4 0,-3 -1,-4 -3,-2 -4,10 -6,15 -1,2 -1,2 -2,3 -2,1 -2,1 -4,2 -2,1 -5,3 -8,4 0,-21 -2,-12 11,-26 3,-3 0,-4 0,-4 -2,-2 -7,6 -11,9 0,-4 1,-12 0,-15l-2 0 -1 4z"/>
 </g>
</svg>
